PathFileType  4	(X/Y/Z) C:\Users\15086\Documents\NMBL_Research\NordBoard_Files\K_Nord_Zeroed\
DataRate	CameraRate	NumFrames	NumMarkers	Units	OrigDataRate	OrigDataStartFrame	OrigNumFrames
  200.0		  200.0		   4		     52		 mm	  200.0	      1435	   1912
Frame#	Time	C7			R_Shoulder			L_Shoulder			Sternum			R_humerus			R_elbow_med			R_elbow_lat			R_forearm			R_wrist_radius			R_wrist_ulna			L_humerus			L_elbow_med			L_elbow_lat			L_forearm			L_wrist_radius			L_wrist_ulna			r.ASIS			r.PSIS			r_IC			L.ASIS			L.PSIS			l_IC			r_thigh1			r_thigh2			r_thigh3			r_thigh4			r_thigh5			r_knee			r_mknee			r_shank_antsup			r_sh2			r_sh3			r_sh4			r_ankle			r_mankle			r_calc			r_5meta			r_toe			L_thigh1			L_thigh2			L_thigh3			L_thigh4			L_knee			L_mknee			L_shank_antsup			L_sh2			L_sh3			L_ankle			L_mankle			L_calc			L_5meta			L_toe			
		X1	Y1	Z1	X2	Y2	Z2	X3	Y3	Z3	X4	Y4	Z4	X5	Y5	Z5	X6	Y6	Z6	X7	Y7	Z7	X8	Y8	Z8	X9	Y9	Z9	X10	Y10	Z10	X11	Y11	Z11	X12	Y12	Z12	X13	Y13	Z13	X14	Y14	Z14	X15	Y15	Z15	X16	Y16	Z16	X17	Y17	Z17	X18	Y18	Z18	X19	Y19	Z19	X20	Y20	Z20	X21	Y21	Z21	X22	Y22	Z22	X23	Y23	Z23	X24	Y24	Z24	X25	Y25	Z25	X26	Y26	Z26	X27	Y27	Z27	X28	Y28	Z28	X29	Y29	Z29	X30	Y30	Z30	X31	Y31	Z31	X32	Y32	Z32	X33	Y33	Z33	X34	Y34	Z34	X35	Y35	Z35	X36	Y36	Z36	X37	Y37	Z37	X38	Y38	Z38	X39	Y39	Z39	X40	Y40	Z40	X41	Y41	Z41	X42	Y42	Z42	X43	Y43	Z43	X44	Y44	Z44	X45	Y45	Z45	X46	Y46	Z46	X47	Y47	Z47	X48	Y48	Z48	X49	Y49	Z49	X50	Y50	Z50	X51	Y51	Z51	X52	Y52	Z52	

1435	7.17000	1213.327	1166.291	-754.743	1334.744	1152.617	-794.008	1078.287	1159.786	-781.705	1202.709	1062.626	-847.403	1487.815	1136.659	-701.662	1616.860	1056.807	-692.857	1594.368	1122.886	-643.716	1607.133	1190.852	-747.814	1577.146	1203.224	-875.497	1632.393	1238.195	-849.088	941.310	1138.481	-662.406	789.857	1063.057	-657.874	816.156	1141.413	-620.839	826.298	1194.678	-709.036	822.792	1232.092	-827.536	896.512	1213.533	-822.393	1337.112	659.267	-601.109	1293.235	832.259	-515.252	1375.068	776.203	-596.793	1106.805	653.051	-576.292	1180.261	834.614	-503.010	1073.067	759.058	-592.214	1363.159	459.308	-496.520	1355.913	358.755	-438.148	1392.686	348.503	-396.718	1418.212	503.314	-414.772	1407.159	401.441	-357.856	1391.957	305.603	-317.511	1270.244	307.063	-305.217	1416.709	313.871	-208.096	1422.933	325.438	-86.819	1420.500	390.360	-213.879	1411.944	405.398	-97.355	1419.894	370.893	70.784	1339.219	354.698	72.361	1355.947	444.068	76.374	1429.041	309.493	190.276	1387.565	260.946	181.134	1038.490	506.150	-443.413	1032.263	385.723	-371.302	1044.566	570.369	-343.132	1056.300	448.973	-275.120	1035.122	338.615	-269.632	1161.940	309.786	-268.850	1025.728	324.951	-168.264	1038.965	412.935	-178.085	1044.817	414.660	-56.727	1076.029	382.354	108.090	1150.666	353.826	102.207	1119.313	440.363	112.224	1096.772	304.669	243.567	1131.404	260.983	218.428
1436	7.17500	1213.251	1166.067	-755.159	1334.719	1152.341	-794.417	1078.208	1159.507	-782.127	1202.661	1062.344	-847.761	1487.693	1136.519	-701.978	1616.812	1056.665	-693.158	1594.286	1122.749	-643.994	1607.103	1190.842	-748.095	1577.076	1202.987	-875.774	1632.285	1237.996	-849.413	941.237	1138.237	-662.747	789.828	1062.824	-658.194	816.116	1141.183	-621.182	826.294	1194.371	-709.394	822.765	1231.795	-827.911	896.102	1213.013	-823.024	1337.095	659.129	-601.309	1293.268	832.161	-515.457	1375.618	776.553	-596.882	1106.732	652.895	-576.432	1180.199	834.476	-503.285	1073.014	758.911	-592.409	1363.154	459.226	-496.572	1355.765	358.951	-437.917	1392.681	348.466	-396.754	1418.205	503.284	-414.882	1407.143	401.412	-357.929	1391.930	305.621	-317.553	1270.225	307.050	-305.237	1416.025	313.319	-208.403	1422.912	325.419	-86.828	1420.835	390.784	-213.575	1411.907	405.400	-97.343	1419.857	370.934	70.793	1339.874	354.753	73.016	1355.913	444.042	76.397	1429.020	309.512	190.290	1387.783	260.707	181.053	1038.452	506.084	-443.532	1032.211	385.724	-371.304	1044.533	570.374	-343.242	1056.235	448.933	-275.229	1035.104	338.575	-269.637	1161.961	309.787	-268.911	1025.743	324.939	-168.269	1038.963	412.915	-178.074	1044.812	414.646	-56.752	1076.033	382.324	108.053	1150.712	353.813	102.191	1119.310	440.335	112.204	1096.788	304.700	243.587	1133.260	260.160	218.631
1437	7.18000	1213.181	1165.803	-755.554	1334.681	1152.099	-794.742	1078.142	1159.253	-782.541	1202.599	1062.124	-848.115	1487.635	1136.326	-702.308	1616.730	1056.458	-693.389	1594.176	1122.605	-644.266	1607.012	1190.648	-748.406	1577.012	1202.720	-876.105	1632.245	1237.729	-849.724	941.303	1138.114	-663.094	788.965	1062.540	-658.398	816.073	1140.980	-621.521	826.253	1194.139	-709.742	822.715	1231.485	-828.351	896.078	1212.703	-823.384	1337.119	658.961	-601.502	1293.135	832.011	-515.730	1374.975	775.987	-597.217	1106.709	652.776	-576.634	1180.156	834.342	-503.551	1072.998	758.742	-592.672	1363.180	459.192	-496.832	1355.775	358.865	-437.927	1392.657	348.413	-396.785	1418.185	503.265	-414.942	1407.125	401.371	-358.005	1391.971	305.531	-317.564	1270.254	307.021	-305.286	1415.984	313.286	-208.409	1422.904	325.411	-86.833	1420.830	390.752	-213.606	1411.987	405.712	-97.192	1419.875	370.817	70.758	1339.882	354.794	72.977	1355.886	444.018	76.415	1429.032	309.417	190.252	1387.856	260.718	180.980	1038.480	505.975	-443.650	1032.206	385.630	-371.413	1044.535	570.357	-343.393	1056.229	448.959	-275.216	1035.114	338.573	-269.656	1161.952	309.791	-268.884	1025.701	324.948	-168.398	1039.029	412.903	-178.096	1044.806	414.642	-56.760	1076.050	382.369	108.039	1150.758	353.791	102.152	1119.320	440.293	112.175	1096.772	304.763	243.577	1131.402	261.034	218.453
1438	7.18500	1213.135	1165.554	-755.968	1334.644	1151.829	-795.086	1078.131	1158.925	-782.940	1202.551	1061.851	-848.466	1487.512	1136.019	-702.625	1617.336	1056.290	-693.482	1594.076	1122.482	-644.535	1606.901	1190.420	-748.735	1576.962	1202.465	-876.426	1632.181	1237.500	-850.054	941.245	1137.861	-663.497	788.919	1062.327	-658.733	816.014	1140.746	-621.877	826.171	1193.919	-710.088	822.685	1231.208	-828.699	896.052	1212.401	-823.750	1337.137	658.836	-601.673	1293.396	832.056	-515.960	1375.553	776.242	-597.321	1107.035	651.986	-576.388	1180.156	834.202	-503.805	1072.979	758.576	-592.883	1363.308	459.001	-496.672	1355.753	358.813	-437.972	1392.632	348.369	-396.834	1418.195	503.231	-415.045	1407.129	401.343	-358.031	1391.969	305.495	-317.584	1270.150	307.310	-304.714	1415.964	313.251	-208.416	1422.918	325.387	-86.872	1420.842	390.734	-213.626	1412.161	405.670	-97.302	1419.885	370.815	70.686	1339.850	354.759	72.978	1355.866	443.998	76.430	1429.051	309.423	190.204	1387.814	260.692	181.016	1038.450	505.887	-443.704	1032.178	385.607	-371.454	1044.513	570.259	-343.485	1056.184	448.782	-275.444	1035.076	338.522	-269.688	1161.924	309.786	-268.921	1025.736	324.927	-168.396	1038.992	412.877	-178.114	1044.826	414.616	-56.788	1076.091	382.410	108.079	1150.785	353.686	102.162	1119.354	440.257	112.138	1096.821	304.726	243.550	1131.356	261.117	218.473
